<?xml version="1.0" encoding="utf-8"?>
<!-- Generator: Adobe Illustrator 23.0.1, SVG Export Plug-In . SVG Version: 6.00 Build 0)  -->
<svg version="1.1" id="图层_2" xmlns="http://www.w3.org/2000/svg" xmlns:xlink="http://www.w3.org/1999/xlink" x="0px" y="0px"
	 viewBox="0 0 132 169.3" style="enable-background:new 0 0 132 169.3;" xml:space="preserve">
<style type="text/css">
	.st0{fill:#8AC8B9;stroke:#000000;stroke-width:3;stroke-miterlimit:10;}
	.st1{fill:#E5836F;stroke:#000000;stroke-width:3;stroke-miterlimit:10;}
	.st2{fill:none;stroke:#000000;stroke-width:3;stroke-miterlimit:10;}
	.st3{fill:#EAC76A;stroke:#000000;stroke-width:3;stroke-miterlimit:10;}
	.st4{fill:#80B9CD;stroke:#000000;stroke-width:3;stroke-miterlimit:10;}
</style>
<path class="st0" d="M85,39.2c0,0-20.5,1.8-26.6,10.2S36.7,74.1,36.7,74.1l58.7,0.7l8-10.3c0,0,3.7-12.9-2.1-19.4L85,39.2z"/>
<polygon class="st1" points="85.8,38.7 109.1,11.2 125,17.4 102.4,45.1 "/>
<line class="st1" x1="91.1" y1="32.4" x2="106.5" y2="38.2"/>
<path class="st2" d="M52.6,56.9L73,65.5c0,0,3.5,5.6,1.9,8"/>
<polygon class="st3" points="7,74.8 121.7,74.8 96.1,157.4 33.7,158.1 "/>
<polygon class="st4" points="48.1,74.7 83.2,74.7 81.9,111.5 66.1,108 48.1,111.5 "/>
<line class="st3" x1="30.9" y1="124" x2="35.5" y2="137.3"/>
<line class="st3" x1="19.6" y1="85.2" x2="27.3" y2="111.3"/>
</svg>
