<?xml version="1.0" encoding="utf-8"?>
<!-- Generator: Adobe Illustrator 23.0.1, SVG Export Plug-In . SVG Version: 6.00 Build 0)  -->
<svg version="1.1" id="图层_2" xmlns="http://www.w3.org/2000/svg" xmlns:xlink="http://www.w3.org/1999/xlink" x="0px" y="0px"
	 viewBox="0 0 237.5 218.8" style="enable-background:new 0 0 237.5 218.8;" xml:space="preserve">
<style type="text/css">
	.st0{fill:#8AC8B9;stroke:#000000;stroke-width:3;stroke-miterlimit:10;}
	.st1{fill:#FFFFFF;stroke:#000000;stroke-width:3;stroke-miterlimit:10;}
	.st2{fill:none;stroke:#000000;stroke-width:3;stroke-miterlimit:10;}
	.st3{fill:#EAC76A;stroke:#000000;stroke-width:3;stroke-miterlimit:10;}
</style>
<circle class="st0" cx="123.3" cy="22.1" r="11.7"/>
<polygon class="st0" points="56,87.4 36.3,62 28.9,59.2 16.5,59.2 11.2,66.2 12.6,73.3 20.8,77.9 23.6,86 25.3,116.7 33.6,130.4 
	39.8,135 46.8,136.8 "/>
<path class="st0" d="M87.8,56h71c0,0-1.2-18.9-18.5-22.2H109C109,33.8,98.6,30.1,87.8,56z"/>
<path class="st0" d="M180.8,73.3l12-8.8h14.1c3.9,2.1,14.1,8.4,17.9,20.4c5.2,16.4-3.8,36.9-23.2,48.3L180.8,73.3z"/>
<path class="st0" d="M85.3,57.4h76.9c0,0,85,65.2,3.5,135.1H82.5C82.5,192.5,0.3,128.7,85.3,57.4z"/>
<path class="st1" d="M189.9,75c0,0,16.7,21.3,14.7,40.8c0,0,18.6-15.5,8.5-37.3C213.2,78.4,202.4,64.5,189.9,75z"/>
<polygon class="st0" points="87.8,208.4 82.8,204.5 82.8,194.2 165.3,194.2 165.3,205.5 160.7,208.4 "/>
<path class="st2" d="M186,139.8c0,0,0.7,22.4-15.7,31.8"/>
<path class="st2" d="M85.7,70.6c0,0-35.8,23.1-23.1,73.9"/>
<line class="st1" x1="140.9" y1="56.9" x2="140.9" y2="74.3"/>
<polygon class="st3" points="139.5,74.3 128.2,85 128.2,107.7 152.6,107.7 152.6,84.7 "/>
</svg>
