<?xml version="1.0" encoding="utf-8"?>
<!-- Generator: Adobe Illustrator 23.0.1, SVG Export Plug-In . SVG Version: 6.00 Build 0)  -->
<svg version="1.1" id="图层_2" xmlns="http://www.w3.org/2000/svg" xmlns:xlink="http://www.w3.org/1999/xlink" x="0px" y="0px"
	 viewBox="0 0 235.7 208.2" style="enable-background:new 0 0 235.7 208.2;" xml:space="preserve">
<style type="text/css">
	.st0{fill:#80B9CD;stroke:#000000;stroke-width:3;stroke-miterlimit:10;}
	.st1{fill:#FFFFFF;stroke:#000000;stroke-width:3;stroke-miterlimit:10;}
	.st2{fill:none;stroke:#000000;stroke-width:3;stroke-miterlimit:10;}
	.st3{fill:#E5836F;stroke:#000000;stroke-width:3;stroke-miterlimit:10;}
	.st4{fill:#F4D435;stroke:#000000;stroke-width:3;stroke-miterlimit:10;}
</style>
<path class="st0" d="M46.6,118.6h170.7c0,0,9.8,4.4,0,10.2s-170.7,0-170.7,0S36.4,125.4,46.6,118.6z"/>
<path class="st0" d="M49.1,118.6c0.1-4.1,2.2-42.8,36.4-66.3c34.1-23.4,70.9-11.5,74.8-10.2c7.3,2.8,17.6,7.9,27.2,17.3
	c22.7,22.3,24,51.7,24.1,59.2H49.1z"/>
<circle class="st0" cx="130.5" cy="26.4" r="13.9"/>
<circle class="st1" cx="130.3" cy="27.5" r="8.4"/>
<path class="st2" d="M116.7,54.7c0,0-33.9,4.4-48,47.8"/>
<polygon class="st3" points="14,135.2 36.4,135.2 39.4,140.1 39.4,191.3 35.9,195.7 14,195.7 "/>
<circle class="st1" cx="24.8" cy="146.3" r="6.1"/>
<path class="st4" d="M39.8,152.3v36.1l23.4-5.9l46.8,0.5l11.2-7.8l26.6-29.3c0,0,5.6-9.8-11.5-11.2l-19.8,16.6l-11.9,4.4L74,144.5
	l-6.8,0.5L39.8,152.3z"/>
<path class="st2" d="M107.2,155.2c0,0,14.6,11.7-4.4,13.2L70.1,164"/>
</svg>
