<?xml version="1.0" encoding="utf-8"?>
<!-- Generator: Adobe Illustrator 23.0.1, SVG Export Plug-In . SVG Version: 6.00 Build 0)  -->
<svg version="1.1" id="图层_2" xmlns="http://www.w3.org/2000/svg" xmlns:xlink="http://www.w3.org/1999/xlink" x="0px" y="0px"
	 viewBox="0 0 152.8 233.9" style="enable-background:new 0 0 152.8 233.9;" xml:space="preserve">
<style type="text/css">
	.st0{fill:#E5836F;stroke:#000000;stroke-width:3;stroke-miterlimit:10;}
	.st1{fill:#FFFFFF;stroke:#000000;stroke-width:3;stroke-miterlimit:10;}
	.st2{fill:#8AC8B9;stroke:#000000;stroke-width:3;stroke-miterlimit:10;}
	.st3{fill:#EAC76A;stroke:#000000;stroke-width:3;stroke-miterlimit:10;}
</style>
<path class="st0" d="M7.1,100.3h64.5v35.2c0,0-12.6,22-32.3,21.3c-9.4-0.3-20.3-5.8-32.3-21.3V100.3z"/>
<line class="st1" x1="22.7" y1="209.8" x2="57.4" y2="209.8"/>
<polygon class="st2" points="111.2,29.5 130.4,29.5 128.1,24.1 114.8,24.1 "/>
<rect x="106.8" y="29.5" class="st3" width="28.5" height="9.3"/>
<rect x="111.2" y="40.4" class="st0" width="19.1" height="32.5"/>
<path class="st0" d="M109,72.9c0,0-14.7,14.3-14.2,24c0.4,9.7,0,111,0,111l4.9,1.9h41.8l4-3.9V97.2c0,0,2.7-9.7-12.5-24.4H109z"/>
<polygon class="st1" points="95.9,110.6 95.9,172.1 116.3,172.1 125.2,165.5 125.2,117.6 115.9,110.6 "/>
<line class="st1" x1="39.4" y1="158.7" x2="39.4" y2="209.8"/>
<line class="st1" x1="111.2" y1="60.5" x2="130.4" y2="60.5"/>
</svg>
