<?xml version="1.0" encoding="utf-8"?>
<!-- Generator: Adobe Illustrator 23.0.1, SVG Export Plug-In . SVG Version: 6.00 Build 0)  -->
<svg version="1.1" id="图层_3" xmlns="http://www.w3.org/2000/svg" xmlns:xlink="http://www.w3.org/1999/xlink" x="0px" y="0px"
	 viewBox="0 0 163.5 146" style="enable-background:new 0 0 163.5 146;" xml:space="preserve">
<style type="text/css">
	.st0{fill:#EAC76A;stroke:#000000;stroke-width:3;stroke-miterlimit:10;}
	.st1{fill:#FFFFFF;stroke:#000000;stroke-width:3;stroke-miterlimit:10;}
	.st2{fill:#EF8FA2;stroke:#000000;stroke-width:3;stroke-miterlimit:10;}
	.st3{fill:#E6BDD8;stroke:#000000;stroke-width:3;stroke-miterlimit:10;}
	.st4{fill:#EC7BA5;stroke:#000000;stroke-width:3;stroke-miterlimit:10;}
</style>
<path class="st0" d="M48,87.3L145.7,2c0,0,8.7-3.5,7.4,7L52.2,91.3C52.2,91.3,47.8,95.1,48,87.3z"/>
<path class="st0" d="M21.7,14.8L158,13.5c0,0,9,2.9,0,9.7L21.7,20.3C21.7,20.3,15.6,20.3,21.7,14.8z"/>
<ellipse class="st1" cx="52.6" cy="51.3" rx="31.3" ry="28.1"/>
<ellipse class="st2" cx="52.6" cy="51.3" rx="12.8" ry="11.5"/>
<g>
	<path class="st1" d="M56.1,112.8c0,4.5-12.2,8.2-27.3,8.2c-13.6,0-24.9-3-26.9-6.9c-0.2-0.4-0.3-0.9-0.3-1.3
		c0-4.5,12.2-8.2,27.3-8.2S56.1,108.3,56.1,112.8z"/>
	<path class="st3" d="M1.5,140l7.2,4.5H48l8.1-6.1v-22.5c0,0-22.4,13.5-54.6,0V140z"/>
	<ellipse class="st4" cx="30.9" cy="112.8" rx="13.9" ry="2.6"/>
</g>
<g>
	<path class="st1" d="M113.3,107.7c0,4.5-12.2,8.2-27.3,8.2c-13.6,0-24.9-3-26.9-6.9c-0.2-0.4-0.3-0.9-0.3-1.3
		c0-4.5,12.2-8.2,27.3-8.2S113.3,103.2,113.3,107.7z"/>
	<path class="st3" d="M58.7,134.9l7.2,4.5h39.2l8.1-6.1v-22.5c0,0-22.4,13.5-54.6,0V134.9z"/>
	<ellipse class="st4" cx="88.1" cy="107.7" rx="13.9" ry="2.6"/>
</g>
</svg>
