<?xml version="1.0" encoding="utf-8"?>
<!-- Generator: Adobe Illustrator 23.0.1, SVG Export Plug-In . SVG Version: 6.00 Build 0)  -->
<svg version="1.1" id="图层_2" xmlns="http://www.w3.org/2000/svg" xmlns:xlink="http://www.w3.org/1999/xlink" x="0px" y="0px"
	 viewBox="0 0 204.6 221.5" style="enable-background:new 0 0 204.6 221.5;" xml:space="preserve">
<style type="text/css">
	.st0{fill:#C0B7CC;stroke:#000000;stroke-width:3;stroke-miterlimit:10;}
	.st1{fill:#EAC76A;stroke:#000000;stroke-width:3;stroke-miterlimit:10;}
	.st2{fill:none;stroke:#000000;stroke-width:3;stroke-miterlimit:10;}
</style>
<path class="st0" d="M168.6,105.6c2.8,0.4,13.5,2.3,20.8,11.6c7.8,10,8.4,24.7,1.6,37.1c-1.9,2.9-7.4,10.5-17.8,14.4
	c-7.2,2.7-13.6,2.5-17,2.1C160.3,149,164.4,127.3,168.6,105.6z"/>
<path class="st0" d="M164.6,117.2c7.6,0.5,14.4,5,17.7,11.8c3.4,7.2,2.5,15.8-2.5,22.1c-3.7,3.8-7.2,6.3-9.7,8
	c-3.7,2.4-6.2,3.4-9,3.2c-1-0.1-2-0.3-2.3-0.5C153.8,159.7,161,130.6,164.6,117.2z"/>
<path class="st0" d="M17.5,94.8h153.3v35.7c0,0-5.6,38.3-27,56.4l-96.6,1.5c0,0-21.8-21-29.7-56.7V94.8z"/>
<path class="st0" d="M27.1,188.6h135.3c0,0-1.8,14.3-11.2,13.4s-115.6,0-115.6,0S27.1,199.3,27.1,188.6z"/>
<ellipse transform="matrix(0.866 -0.5 0.5 0.866 -58.2095 65.3804)" class="st1" cx="92.9" cy="141.3" rx="19.8" ry="12.9"/>
<path class="st1" d="M81,26.5c0,0,10.4,11.8,9.4,19c-1,7.2-4.7,18.5-4.7,18.5c-2.6,4.3-7.8,14.6-3.9,23.3c0.2,0.5,0.5,1.1,0.9,1.6
	c-2.2-2.3-5.3-6-7-11.3c-2.4-7.3-1-13.2,0.9-23.3C77.8,48.1,79.4,38.6,81,26.5z"/>
<path class="st1" d="M112.4,11.8c0,0-0.6,31.5-8.6,31.8c-8,0.3,9.9,28.7,9.9,28.7s-6.4-25.8,3.8-27.8s2.2-22.3,2.2-22.3L112.4,11.8z
	"/>
<path class="st2" d="M29.3,108.2c0,0,0.3,38.8,5.7,39.8"/>
<path class="st2" d="M162.3,116.8c0,0,1.9,33.7-14.3,47.7"/>
<polyline class="st2" points="102,130.8 93.3,137.8 93.3,143.5 90.4,147.9 82.5,151.4 "/>
</svg>
