<?xml version="1.0" encoding="utf-8"?>
<!-- Generator: Adobe Illustrator 23.0.1, SVG Export Plug-In . SVG Version: 6.00 Build 0)  -->
<svg version="1.1" xmlns="http://www.w3.org/2000/svg" xmlns:xlink="http://www.w3.org/1999/xlink" x="0px" y="0px"
	 viewBox="0 0 208.3 221.2" style="enable-background:new 0 0 208.3 221.2;" xml:space="preserve">
<style type="text/css">
	.st0{display:none;}
	.st1{fill:#FFFFFF;stroke:#000000;stroke-width:3;stroke-miterlimit:10;}
	.st2{fill:#E5836F;stroke:#0C0A0A;stroke-width:4;stroke-miterlimit:10;}
	.st3{fill:#EAC76A;stroke:#0C0A0A;stroke-width:3;stroke-miterlimit:10;}
	.st4{fill:#80B9CD;stroke:#0C0A0A;stroke-width:3;stroke-miterlimit:10;}
</style>
<g id="图层_1" class="st0">
	
		<image style="display:inline;overflow:visible;" width="256" height="256" xlink:href="../Desktop/deszone-restaurants-and-cafes-vector-free-icon-set/PNG/restaurants-and-cafes-vector-free-icon-set-18.png"  transform="matrix(1 0 0 1 -24.721 -22.6654)">
	</image>
	
		<image style="display:inline;overflow:visible;" width="256" height="256" xlink:href="../Desktop/deszone-restaurants-and-cafes-vector-free-icon-set/PNG/restaurants-and-cafes-vector-free-icon-set-38.png"  transform="matrix(1 0 0 1 -184.721 -344.6654)">
	</image>
</g>
<g id="图层_2">
	<g>
		<polyline class="st1" points="75.7,12.4 75.7,15.3 73.3,18.6 68.5,23.9 65.1,25.8 63.2,29.6 63.2,33.5 63.2,37.3 67,39.7 
			71.3,43.5 73.7,47.8 75.7,51.3 75.7,53.5 73.7,58.3 69.4,61.7 66.1,65 63.2,68.8 63.2,72.2 		"/>
		<polyline class="st1" points="111,0 111,4.8 111,8.1 106.7,12.4 100.5,16.7 98.6,20.6 96.2,24.9 96.2,29.2 96.2,33.9 96.2,36.8 
			100.5,39.7 106.7,44.9 111,51.3 111,54 111,59.8 109.1,64.1 103.6,67.9 99.1,72.2 96.2,77 96.2,82.7 		"/>
		<polyline class="st1" points="142.1,12.4 142.1,17.2 138.8,21.5 133.5,23.9 131.1,27.7 131.1,33.9 131.1,39.2 136.6,42.3 
			140.2,46.4 142.1,49.2 142.1,54 139.2,57.8 136.6,61.7 133.5,66 131.1,67.9 131.1,72.2 		"/>
		<rect x="21.2" y="96.1" class="st2" width="163.5" height="9.2"/>
		<path class="st3" d="M21.2,105.3c0,0,12.9,61,79.6,63.5c1.5,0.1,2.9,0,4.4,0c11.5,0.6,65.7-2.6,79.6-63.6"/>
		<path class="st4" d="M10.6,185c0,0-20.6,9.1,0,21l114.7-6.7l3.3,2.4c0,0,10.5,16.3,27.2,17.7s33.9-3.8,33.9-3.8s19.1-8.1,16.7-22
			s-25.3-21.5-25.3-21.5s-33.9-8.6-50.2,12l-2.4,4.8l-4.8,1L10.6,185z"/>
	</g>
</g>
</svg>
