<?xml version="1.0" encoding="utf-8"?>
<!-- Generator: Adobe Illustrator 23.0.1, SVG Export Plug-In . SVG Version: 6.00 Build 0)  -->
<svg version="1.1" xmlns="http://www.w3.org/2000/svg" xmlns:xlink="http://www.w3.org/1999/xlink" x="0px" y="0px"
	 viewBox="0 0 215 210.8" style="enable-background:new 0 0 215 210.8;" xml:space="preserve">
<style type="text/css">
	.st0{display:none;}
	.st1{fill:#C0B7CC;stroke:#000000;stroke-miterlimit:10;}
	.st2{fill:#E5836F;stroke:#000000;stroke-width:4;stroke-miterlimit:10;}
	.st3{fill:#80B9CD;}
	.st4{fill:none;stroke:#000000;stroke-width:3;stroke-miterlimit:10;}
</style>
<g id="图层_1" class="st0">
	
		<image style="display:inline;overflow:visible;" width="256" height="256" xlink:href="deszone-restaurants-and-cafes-vector-free-icon-set/PNG/restaurants-and-cafes-vector-free-icon-set-35.png"  transform="matrix(1 0 0 1 -222.2287 -343.4926)">
	</image>
	
		<image style="display:inline;overflow:visible;" width="256" height="256" xlink:href="deszone-restaurants-and-cafes-vector-free-icon-set/PNG/restaurants-and-cafes-vector-free-icon-set-15.png"  transform="matrix(1 0 0 1 -20.2287 -25.605)">
	</image>
</g>
<g id="图层_2">
	<rect x="53.4" y="15.9" class="st1" width="100.8" height="37.1"/>
	<polygon class="st1" points="51.7,23.4 30.6,23.4 46.2,52.9 51.7,52.9 	"/>
	<path class="st1" d="M154.2,25.2c0,0,39.3,1.5,42.7,48.2c0,0-2,9.9-14.4,4.5c0,0-10.4-36.5-28.3-34.7V25.2z"/>
	<g>
		<path class="st2" d="M44,53.4c-2.4,2.4-32.5,33.7-24.6,77c5.6,30.3,26.4,47.2,31.7,51.3c0,0,50.5,39.8,105.1-1.8
			s15.6-112.7,15.6-112.7S161.4,50,156.2,52.7C118.8,52.9,81.4,53.1,44,53.4z"/>
		<path class="st3" d="M19,103.5c0,0,17.7,19.4,44.1,4.6S105,95.5,105,95.5s18.4-2.5,36.1,11.8c17.7,14.3,0,0,0,0s18.8,9.5,43.4,0.5
			s0,0,0,0s-5.7-42.6-26.4-55.5s0,0,0,0L44,53.4C44,53.4,18,83.1,19,103.5"/>
		<path class="st4" d="M53.7,60.6c0,0-21.8,21-21.1,39.5"/>
		<path class="st4" d="M183.2,108.6c0,0-26.3,9.5-45.6-3.2s-36.5-9.5-36.5-9.5S91,94.3,63.2,108s-42-2.7-42-2.7"/>
		<path class="st4" d="M65.7,179.9c0,0,41,24.3,78.5-3.7"/>
	</g>
</g>
</svg>
