<?xml version="1.0" encoding="utf-8"?>
<!-- Generator: Adobe Illustrator 23.0.1, SVG Export Plug-In . SVG Version: 6.00 Build 0)  -->
<svg version="1.1" id="图层_2" xmlns="http://www.w3.org/2000/svg" xmlns:xlink="http://www.w3.org/1999/xlink" x="0px" y="0px"
	 viewBox="0 0 158 158.7" style="enable-background:new 0 0 158 158.7;" xml:space="preserve">
<style type="text/css">
	.st0{fill:#E5836F;stroke:#000000;stroke-width:3;stroke-miterlimit:10;}
	.st1{fill:#EAC76A;stroke:#000000;stroke-width:3;stroke-miterlimit:10;}
	.st2{fill:#E5836F;stroke:#000000;stroke-miterlimit:10;}
	.st3{fill:#C0B7CC;}
	.st4{fill:#C0B7CC;stroke:#000000;stroke-width:3;stroke-miterlimit:10;}
</style>
<g>
	<path class="st0" d="M32.1,92.6l8.5,47.7c0,0-0.9,6.6,12,8.5c12.8,1.9,58.7,0,58.7,0s8.9-0.7,12.6-9.2s7.3-47,7.3-47l-0.9-2.3
		c0,0-21.2,5-35.6-3.7"/>
	<path class="st0" d="M94.6,86.6c0,0-24.7,8.5-32.8,0.3s0,0,0,0S35.6,96,31,91.3c-4.7-4.7,0,0,0,0l9.6,49"/>
</g>
<path class="st1" d="M27,49.1c0,0-3-36.1,46.3-39.8c49.4-3.7,52.5,31,52.5,31c15.8,3.4,26,15.6,24.8,27.9c-1,9.7-9,18.3-20.4,22
	c0,0-22.1,7.1-35.6-3.7c0,0-22.5,8.1-32.8,0.3c0,0-36.4,16.7-53.8-11.2C8,75.7,1.7,59.2,27,49.1z"/>
<g>
	<ellipse class="st2" cx="49.1" cy="32.7" rx="5.1" ry="4.4"/>
	<ellipse class="st2" cx="94.6" cy="28.8" rx="7.2" ry="6.1"/>
	<ellipse class="st2" cx="62.8" cy="55.9" rx="6.4" ry="5.4"/>
	<ellipse class="st2" cx="32.1" cy="71.7" rx="5.8" ry="5"/>
	<ellipse class="st2" cx="69.5" cy="77.1" rx="5" ry="4.2"/>
	<ellipse class="st2" cx="91.5" cy="62.2" rx="4.1" ry="3.5"/>
	<ellipse class="st2" cx="117.5" cy="54.9" rx="6.3" ry="5.4"/>
	<ellipse class="st2" cx="124.3" cy="75.6" rx="6.8" ry="5.8"/>
</g>
<polyline class="st3" points="127.3,108.4 35.9,108.4 128.5,108.4 125.9,127.7 39.4,127.7 35.2,108.4 "/>
<line class="st4" x1="35" y1="109" x2="129.3" y2="109"/>
<line class="st4" x1="38.3" y1="127.2" x2="126.2" y2="127.2"/>
</svg>
