<?xml version="1.0" encoding="utf-8"?>
<!-- Generator: Adobe Illustrator 23.0.1, SVG Export Plug-In . SVG Version: 6.00 Build 0)  -->
<svg version="1.1" id="图层_2" xmlns="http://www.w3.org/2000/svg" xmlns:xlink="http://www.w3.org/1999/xlink" x="0px" y="0px"
	 viewBox="0 0 132.3 218.6" style="enable-background:new 0 0 132.3 218.6;" xml:space="preserve">
<style type="text/css">
	.st0{fill:#80B9CD;stroke:#000000;stroke-width:3;stroke-miterlimit:10;}
	.st1{fill:#ED7B91;stroke:#000000;stroke-width:3;stroke-miterlimit:10;}
	.st2{fill:#E95464;stroke:#000000;stroke-width:3;stroke-miterlimit:10;}
	.st3{fill:#F4D629;stroke:#000000;stroke-width:3;stroke-miterlimit:10;}
	.st4{font-family:'AdobeSongStd-Light-GBpc-EUC-H';}
	.st5{font-size:11.6854px;}
	.st6{fill:#EA5942;stroke:#000000;stroke-width:3;stroke-miterlimit:10;}
</style>
<polygon class="st0" points="6.7,45.9 6.7,196.9 11.2,199.6 122.8,199.6 125.6,197.3 125.6,50.1 124,45.9 "/>
<line class="st1" x1="67.3" y1="179.7" x2="67.3" y2="135.9"/>
<path class="st1" d="M34.9,106.2l32.4,29.7l32.2-29.7C99.5,106.2,66.4,91.3,34.9,106.2z"/>
<ellipse class="st2" cx="67.3" cy="185.1" rx="22.9" ry="5.3"/>
<path class="st3" d="M97.4,87.3H37c-5.6,0-10.3-4.6-10.3-10.3v0c0-5.6,4.6-10.3,10.3-10.3h60.4c5.6,0,10.3,4.6,10.3,10.3v0
	C107.7,82.7,103,87.3,97.4,87.3z"/>
<text transform="matrix(1.5663 0 0 1 40.6236 80.6911)" class="st4 st5">MENU</text>
<polygon class="st0" points="15.9,44.4 107.9,14.7 113.6,14.7 116.4,18.1 116.4,44.4 "/>
<path class="st6" d="M44.4,44.8h59.7c0-5.9,0-11.8,0-17.7C84.2,33,64.3,38.9,44.4,44.8z"/>
</svg>
